<svg xmlns="http://www.w3.org/2000/svg" viewBox="0 0 750.543 366" class="icon" style="height: 50px; width: auto; fill: currentcolor;"><defs><linearGradient id="linear-gradient" x1="-1.82" y1=".5" x2="5.541" y2=".538" gradientUnits="objectBoundingBox"><stop offset="0" stop-color="#fff"></stop><stop offset="1" stop-color="gray"></stop></linearGradient><style>.cls-1{fill:url(#linear-gradient)}</style></defs><path id="Shape" class="cls-1" d="M311.161,333.924H.344V22.84h310.8V333.924Zm-288.5-22.313h266.2V45.134H22.657Z" transform="translate(-.344 32.076)"></path><path id="Shape-2" data-name="Shape" class="cls-1" d="M343.7,263.123H134.172V53.4H343.7ZM148.936,248.331H328.657V68.458H148.946V248.331Z" transform="translate(191.953 75.985)"></path><path id="Shape-3" data-name="Shape" class="cls-1" d="M315.925,184.569H201.41V69.949H315.925ZM209.473,176.5h98.389V78.031H209.473Z" transform="translate(288.567 99.767)"></path><path id="Shape-4" data-name="Shape" class="cls-1" d="M224.423,114.924H109.918V.3H224.423Zm-106.443-8.072h98.38V8.377h-98.38Z" transform="translate(157.102 -.305)"></path><path id="Shape-5" data-name="Shape" class="cls-1" d="M354.009,125.869H276.371V47.879h77.895V125.85h-.247Zm-72.145-5.5h66.91V53.39h-66.91Z" transform="translate(396.277 68.054)"></path></svg>